# xmcd
#
# Track frame offsets:
#  150
#  18125
#  33201
#  47505
#  59828
#  76422
#  89538
#  108256
#  123608
#  138464
#  152025
#  167600
#  182015
#  194861
#  208965
#  225889
#  245239
#  261295
#  279328
#  292802
#  306197
#
# Disc length: 4228 seconds
#
# Revision: 0
# Processed by: cddbd v1.5.1PL2 Copyright (c) Steve Scherf et al.
# Submitted via: Collectorz.com_Music_Collector 6.11
#
DISCID=2d108215
DTITLE=Various Artist - Compilation Album
DYEAR=1900
DGENRE=
TTITLE0=George Strait - I Hate Everything
TTITLE1=George Strait - Check Yes Or No
TTITLE2=George Strait - Ocean Front Property
TTITLE3=George Strait - If I Know Me
TTITLE4=George Strait - Cowboys Like Us
TTITLE5=George Strait - Let's Fall to Pieces Together
TTITLE6=George Strait - Desperately
TTITLE7=George Strait - Good News, Bad News
TTITLE8=George Strait - She Let Herself Go
TTITLE9=George Strait - She'll Leave You With A Smile
TTITLE10=George Strait - So Much Like My Dad
TTITLE11=George Strait - Where The Sidewalk Ends
TTITLE12=George Strait - blame it on mexico
TTITLE13=George Strait - A Fathers Love
TTITLE14=George Strait Stars On The Water - Stars On The Water
TTITLE15=George Strait t - I Can Still Make Cheyenne
TTITLE16=Gary Allan - Nothing on But the Radio
TTITLE17=Gary Allen - Tough Little Boys
TTITLE18=Gary Allen - I'll Take Today
TTITLE19=Gary Allen - It Would Be You
TTITLE20=gary stewart - Brand New Whiskey
EXTD=
EXTT0=
EXTT1=
EXTT2=
EXTT3=
EXTT4=
EXTT5=
EXTT6=
EXTT7=
EXTT8=
EXTT9=
EXTT10=
EXTT11=
EXTT12=
EXTT13=
EXTT14=
EXTT15=
EXTT16=
EXTT17=
EXTT18=
EXTT19=
EXTT20=
PLAYORDER=
